<mxfile host="app.diagrams.net" modified="2024-07-02T01:02:11.357Z" agent="Mozilla/5.0 (Macintosh; Intel Mac OS X 10.15; rv:126.0) Gecko/20100101 Firefox/126.0" etag="Ys5DwWBjVTeLN8hAHq62" version="24.6.4" type="github" pages="2">
  <diagram name="Introducing Google Cloud" id="m140OX7gJDVnHVPhYppR">
    <mxGraphModel dx="1026" dy="688" grid="1" gridSize="10" guides="1" tooltips="1" connect="1" arrows="1" fold="1" page="1" pageScale="1" pageWidth="850" pageHeight="1100" math="0" shadow="0">
      <root>
        <mxCell id="0" />
        <mxCell id="1" parent="0" />
        <mxCell id="ZB4kWbe82F2Engg8KSVr-1" value="Introducing Google Cloud" style="shape=step;perimeter=stepPerimeter;whiteSpace=wrap;html=1;fixedSize=1;hachureGap=4;fontFamily=Architects Daughter;fontSource=https%3A%2F%2Ffonts.googleapis.com%2Fcss%3Ffamily%3DArchitects%2BDaughter;" vertex="1" parent="1">
          <mxGeometry x="360" y="520" width="200" height="80" as="geometry" />
        </mxCell>
      </root>
    </mxGraphModel>
  </diagram>
  <diagram id="MR8tB_YX9_QbjrZ4hQh_" name="Resource and Access in Cloud">
    <mxGraphModel dx="1876" dy="1788" grid="1" gridSize="10" guides="1" tooltips="1" connect="1" arrows="1" fold="1" page="1" pageScale="1" pageWidth="850" pageHeight="1100" math="0" shadow="0">
      <root>
        <mxCell id="0" />
        <mxCell id="1" parent="0" />
        <mxCell id="kPhYTnK1E6m5oxsVBe5k-5" value="" style="edgeStyle=orthogonalEdgeStyle;rounded=0;hachureGap=4;orthogonalLoop=1;jettySize=auto;html=1;fontFamily=Architects Daughter;fontSource=https%3A%2F%2Ffonts.googleapis.com%2Fcss%3Ffamily%3DArchitects%2BDaughter;fontSize=12;fontColor=default;" edge="1" parent="1" source="kPhYTnK1E6m5oxsVBe5k-2" target="kPhYTnK1E6m5oxsVBe5k-4">
          <mxGeometry relative="1" as="geometry" />
        </mxCell>
        <mxCell id="kPhYTnK1E6m5oxsVBe5k-20" value="" style="edgeStyle=orthogonalEdgeStyle;shape=connector;rounded=0;hachureGap=4;orthogonalLoop=1;jettySize=auto;html=1;strokeColor=default;align=center;verticalAlign=middle;fontFamily=Architects Daughter;fontSource=https%3A%2F%2Ffonts.googleapis.com%2Fcss%3Ffamily%3DArchitects%2BDaughter;fontSize=12;fontColor=default;labelBackgroundColor=none;endArrow=classic;" edge="1" parent="1" source="kPhYTnK1E6m5oxsVBe5k-2" target="kPhYTnK1E6m5oxsVBe5k-19">
          <mxGeometry relative="1" as="geometry" />
        </mxCell>
        <mxCell id="kPhYTnK1E6m5oxsVBe5k-2" value="&lt;font style=&quot;font-size: 23px;&quot;&gt;Resources &amp;amp; &lt;br&gt;Access in Cloud&lt;br&gt;&lt;/font&gt;" style="shape=step;perimeter=stepPerimeter;whiteSpace=wrap;html=1;fixedSize=1;hachureGap=4;fontFamily=Architects Daughter;fontSource=https%3A%2F%2Ffonts.googleapis.com%2Fcss%3Ffamily%3DArchitects%2BDaughter;" vertex="1" parent="1">
          <mxGeometry x="360" y="520" width="240" height="80" as="geometry" />
        </mxCell>
        <mxCell id="kPhYTnK1E6m5oxsVBe5k-3" value="&lt;div style=&quot;font-size: 18px;&quot; align=&quot;justify&quot;&gt;&lt;h3 class=&quot;css-13hhzop&quot; tabindex=&quot;-1&quot;&gt;Learning Objectives&lt;/h3&gt;&lt;hr class=&quot;cds-858 cds-Divider-dark css-yc753g&quot; aria-hidden=&quot;true&quot;&gt;&lt;ul&gt;&lt;li data-collapsible=&quot;false&quot;&gt;Define the purpose of and use cases for IAM.&lt;/li&gt;&lt;li data-collapsible=&quot;false&quot;&gt;List the methods of interaction with Google Cloud.&lt;/li&gt;&lt;li data-collapsible=&quot;false&quot;&gt;Use Cloud Marketplace to interact with Google Cloud.&lt;/li&gt;&lt;li data-collapsible=&quot;true&quot;&gt;Identify the purpose of projects on Google Cloud.&lt;/li&gt;&lt;/ul&gt;&lt;/div&gt;" style="text;whiteSpace=wrap;html=1;fontFamily=Architects Daughter;fontSource=https%3A%2F%2Ffonts.googleapis.com%2Fcss%3Ffamily%3DArchitects%2BDaughter;fontSize=12;fontColor=default;" vertex="1" parent="1">
          <mxGeometry x="-840" width="500" height="200" as="geometry" />
        </mxCell>
        <mxCell id="kPhYTnK1E6m5oxsVBe5k-7" value="" style="edgeStyle=orthogonalEdgeStyle;rounded=0;hachureGap=4;orthogonalLoop=1;jettySize=auto;html=1;fontFamily=Architects Daughter;fontSource=https%3A%2F%2Ffonts.googleapis.com%2Fcss%3Ffamily%3DArchitects%2BDaughter;fontSize=12;fontColor=default;" edge="1" parent="1" source="kPhYTnK1E6m5oxsVBe5k-4" target="kPhYTnK1E6m5oxsVBe5k-6">
          <mxGeometry relative="1" as="geometry" />
        </mxCell>
        <UserObject label="Google Cloud Hierarchy" tooltip="In this section of the course, we are learning about the structure of Google Cloud. Google Cloud has four levels in its resource hierarchy: resources, projects, folders, and an organization node.&#xa;&#xa;    Resources: These are things like virtual machines, Cloud Storage buckets, or tables in BigQuery. They are organized into projects.&#xa;    Projects: Projects are the basis for using Google Cloud services. Each project is a separate entity and has a unique project ID, name, and number. Projects can have different owners and users.&#xa;    Folders: Folders allow you to group projects and other folders together. They help you assign policies and permissions to resources at a level of your choice. Resources in a folder inherit policies and permissions from that folder.&#xa;    Organization Node: This is the top level of the hierarchy and encompasses all the projects, folders, and resources in your organization. It has special roles associated with it, like organization policy administrator and project creator.&#xa;&#xa;Understanding this hierarchy is important because it helps you manage and apply policies when using Google Cloud. Policies can be defined at the project, folder, and organization node levels. Some services also allow policies to be applied to individual resources. Policies are inherited downward, so if you apply a policy to a folder, it will apply to all the projects within that folder." id="kPhYTnK1E6m5oxsVBe5k-4">
          <mxCell style="whiteSpace=wrap;html=1;fontFamily=Architects Daughter;hachureGap=4;fontSource=https%3A%2F%2Ffonts.googleapis.com%2Fcss%3Ffamily%3DArchitects%2BDaughter;" vertex="1" parent="1">
            <mxGeometry x="-180" y="360" width="120" height="40" as="geometry" />
          </mxCell>
        </UserObject>
        <UserObject label="Questions" tooltip="Here are some practice questions related to the topic of the resource hierarchy in Google Cloud:&#xa;&#xa;    What are the four levels in Google Cloud&#39;s resource hierarchy?&#xa;    How are resources organized in Google Cloud?&#xa;    What is the purpose of projects in Google Cloud?&#xa;    What are the three identifying attributes of a Google Cloud project?&#xa;    How are policies managed and applied in Google Cloud?&#xa;    What is the role of folders in the resource hierarchy?&#xa;    How do resources inherit policies and permissions from folders?&#xa;    What is the organization node in Google Cloud, and what is its significance?&#xa;    What are some special roles associated with the organization node?&#xa;    How can you create a new organization node in Google Cloud?" id="kPhYTnK1E6m5oxsVBe5k-6">
          <mxCell style="rhombus;whiteSpace=wrap;html=1;fontFamily=Architects Daughter;hachureGap=4;fontSource=https%3A%2F%2Ffonts.googleapis.com%2Fcss%3Ffamily%3DArchitects%2BDaughter;" vertex="1" parent="1">
            <mxGeometry x="-160" y="200" width="80" height="80" as="geometry" />
          </mxCell>
        </UserObject>
        <mxCell id="kPhYTnK1E6m5oxsVBe5k-8" value="" style="shape=note;whiteSpace=wrap;html=1;backgroundOutline=1;darkOpacity=0.05;fillColor=#fff2cc;strokeColor=#d6b656;fillStyle=solid;direction=west;gradientDirection=north;shadow=1;size=20;pointerEvents=1;hachureGap=4;align=center;verticalAlign=middle;fontFamily=Architects Daughter;fontSource=https%3A%2F%2Ffonts.googleapis.com%2Fcss%3Ffamily%3DArchitects%2BDaughter;fontSize=12;labelBackgroundColor=none;" vertex="1" parent="1">
          <mxGeometry x="480" y="40" width="360" height="40" as="geometry" />
        </mxCell>
        <mxCell id="kPhYTnK1E6m5oxsVBe5k-9" value="" style="shape=note;whiteSpace=wrap;html=1;backgroundOutline=1;darkOpacity=0.05;fillColor=#fff2cc;strokeColor=#d6b656;fillStyle=solid;direction=west;gradientDirection=north;shadow=1;size=20;pointerEvents=1;hachureGap=4;align=center;verticalAlign=middle;fontFamily=Architects Daughter;fontSource=https%3A%2F%2Ffonts.googleapis.com%2Fcss%3Ffamily%3DArchitects%2BDaughter;fontSize=12;labelBackgroundColor=none;" vertex="1" parent="1">
          <mxGeometry x="490" y="50" width="360" height="40" as="geometry" />
        </mxCell>
        <mxCell id="kPhYTnK1E6m5oxsVBe5k-10" value="" style="shape=note;whiteSpace=wrap;html=1;backgroundOutline=1;darkOpacity=0.05;fillColor=#fff2cc;strokeColor=#d6b656;fillStyle=solid;direction=west;gradientDirection=north;shadow=1;size=20;pointerEvents=1;hachureGap=4;align=center;verticalAlign=middle;fontFamily=Architects Daughter;fontSource=https%3A%2F%2Ffonts.googleapis.com%2Fcss%3Ffamily%3DArchitects%2BDaughter;fontSize=12;labelBackgroundColor=none;" vertex="1" parent="1">
          <mxGeometry x="500" y="60" width="360" height="40" as="geometry" />
        </mxCell>
        <mxCell id="kPhYTnK1E6m5oxsVBe5k-11" value="" style="shape=note;whiteSpace=wrap;html=1;backgroundOutline=1;darkOpacity=0.05;fillColor=#fff2cc;strokeColor=#d6b656;fillStyle=solid;direction=west;gradientDirection=north;shadow=1;size=20;pointerEvents=1;hachureGap=4;align=center;verticalAlign=middle;fontFamily=Architects Daughter;fontSource=https%3A%2F%2Ffonts.googleapis.com%2Fcss%3Ffamily%3DArchitects%2BDaughter;fontSize=12;labelBackgroundColor=none;" vertex="1" parent="1">
          <mxGeometry x="510" y="70" width="360" height="40" as="geometry" />
        </mxCell>
        <UserObject label="&lt;div class=&quot;coach-client coach-message-text css-soikf9&quot;&gt;&lt;p&gt;Can you explain how a Service Account is used and assigned roles in Google Cloud IAM?&lt;/p&gt;&lt;/div&gt;" tooltip="A Service Account is a special type of account used by applications, services, or virtual machines to authenticate and interact with Google Cloud APIs. Here&#39;s how a Service Account is used and assigned roles in Google Cloud IAM:&#xa;&#xa;    Creating a Service Account:&#xa;        To use a Service Account, you first need to create one in the Google Cloud Console.&#xa;        When creating a Service Account, you can specify a name and ID for the account.&#xa;        You can also add optional metadata to provide additional information about the account.&#xa;&#xa;    Assigning Roles to a Service Account:&#xa;        After creating a Service Account, you can assign roles to it to define the permissions it has within Google Cloud.&#xa;        Roles determine what actions the Service Account can perform on which resources.&#xa;        Google Cloud IAM provides a wide range of predefined roles that you can assign to a Service Account.&#xa;        Predefined roles are specific to Google Cloud services and offer predefined sets of permissions.&#xa;        You can assign predefined roles at the project, folder, or organization level, depending on your needs.&#xa;        Additionally, you can create custom roles with specific sets of permissions tailored to your requirements and assign them to the Service Account.&#xa;&#xa;    Authenticating as a Service Account:&#xa;        To authenticate as a Service Account, you need to obtain the Service Account&#39;s credentials.&#xa;        These credentials typically include a private key file or a JSON key file associated with the Service Account.&#xa;        The private key file contains the necessary information to authenticate and authorize requests made by the Service Account.&#xa;        Applications or services can use these credentials to authenticate themselves when interacting with Google Cloud APIs.&#xa;&#xa;    Interacting with Google Cloud APIs:&#xa;        Once authenticated, the Service Account can make API requests to interact with Google Cloud resources.&#xa;        The Service Account&#39;s assigned roles determine the actions it can perform on the resources.&#xa;        For example, a Service Account with the &quot;Compute Instance Admin&quot; role can manage virtual machine instances within a project.&#xa;&#xa;By using Service Accounts and assigning roles to them, you can control and manage the permissions granted to applications, services, or virtual machines within Google Cloud. This allows you to securely authenticate and authorize these entities to interact with Google Cloud resources on your behalf." id="kPhYTnK1E6m5oxsVBe5k-12">
          <mxCell style="shape=note;whiteSpace=wrap;html=1;backgroundOutline=1;darkOpacity=0.05;fillColor=#e1d5e7;strokeColor=#9673a6;fillStyle=solid;direction=west;gradientDirection=north;shadow=0;size=20;pointerEvents=1;hachureGap=4;align=center;verticalAlign=middle;fontFamily=Architects Daughter;fontSource=https%3A%2F%2Ffonts.googleapis.com%2Fcss%3Ffamily%3DArchitects%2BDaughter;fontSize=12;labelBackgroundColor=none;" vertex="1" parent="1">
            <mxGeometry x="80" width="360" height="40" as="geometry" />
          </mxCell>
        </UserObject>
        <UserObject label="&lt;div class=&quot;coach-client coach-message-text css-soikf9&quot;&gt;&lt;p&gt;How does IAM handle conflicts between allow and deny policies? Can you explain the order of evaluation?&lt;/p&gt;&lt;/div&gt;" tooltip="Coach&#xa;&#xa;IAM handles conflicts between allow and deny policies by following a specific order of evaluation. Here&#39;s an explanation of the order of evaluation:&#xa;&#xa;    Deny Policies:&#xa;        IAM always checks relevant deny policies first before checking allow policies.&#xa;        If a deny policy exists that explicitly denies a specific permission, it takes precedence over any allow policies.&#xa;        If a deny policy is applicable to an identity, the denied permission will be denied regardless of any allow policies that may grant the same permission.&#xa;&#xa;    Allow Policies:&#xa;        If no relevant deny policies are found, IAM then checks the allow policies.&#xa;        Allow policies grant permissions to identities based on the roles assigned to them.&#xa;        If an allow policy grants a specific permission, the identity will be allowed to perform that action on the resource.&#xa;&#xa;    Inheritance:&#xa;        IAM policies are inherited through the resource hierarchy.&#xa;        When a policy is applied at a higher level, such as a project, it applies to all resources within that project and any child resources within folders or projects.&#xa;        This means that if a policy is set at a higher level, it will affect the permissions of resources below it in the hierarchy.&#xa;&#xa;By following this order of evaluation, IAM ensures that deny policies take precedence over allow policies. This allows for fine-grained control over access to resources and helps enforce security and access management policies within Google Cloud." id="kPhYTnK1E6m5oxsVBe5k-13">
          <mxCell style="shape=note;whiteSpace=wrap;html=1;backgroundOutline=1;darkOpacity=0.05;fillColor=#fff2cc;strokeColor=#d6b656;fillStyle=solid;direction=west;gradientDirection=north;shadow=1;size=20;pointerEvents=1;hachureGap=4;align=center;verticalAlign=middle;fontFamily=Architects Daughter;fontSource=https%3A%2F%2Ffonts.googleapis.com%2Fcss%3Ffamily%3DArchitects%2BDaughter;fontSize=12;labelBackgroundColor=none;" vertex="1" parent="1">
            <mxGeometry x="80" y="160" width="360" height="40" as="geometry" />
          </mxCell>
        </UserObject>
        <UserObject label="&lt;div class=&quot;coach-client coach-message-text css-soikf9&quot;&gt;&lt;p&gt;What are the different types of identities that can be assigned roles and permissions in Google Cloud IAM?&lt;/p&gt;&lt;/div&gt;" tooltip="Coach&#xa;&#xa;In Google Cloud IAM, there are several types of identities that can be assigned roles and permissions. These identities represent entities that can perform actions within Google Cloud. Here are the different types of identities:&#xa;&#xa;    Google Account:&#xa;        A Google Account represents an individual user and is associated with an email address.&#xa;        It can be a personal Google Account or a Google Workspace (formerly G Suite) account.&#xa;        Google Accounts can be assigned roles and permissions to access and manage resources within Google Cloud.&#xa;&#xa;    Google Group:&#xa;        A Google Group is a collection of Google Accounts or other Google Groups.&#xa;        It allows you to manage access to resources for multiple users at once.&#xa;        By assigning roles and permissions to a Google Group, you can grant access to all members of the group.&#xa;&#xa;    Service Account:&#xa;        A Service Account is a special type of account used by applications, services, or virtual machines to authenticate and interact with Google Cloud APIs.&#xa;        Service Accounts are associated with a unique email address and have their own set of credentials.&#xa;        They can be assigned roles and permissions to access and manage resources within Google Cloud on behalf of the application or service they represent.&#xa;&#xa;    Cloud Identity Domain:&#xa;        A Cloud Identity Domain represents an organization&#39;s identity and access management system.&#xa;        It allows you to manage users, groups, and other resources within your organization.&#xa;        Cloud Identity Domains can be integrated with Google Cloud IAM to assign roles and permissions to users and groups within the domain.&#xa;&#xa;These different types of identities provide flexibility in managing access control within Google Cloud. By assigning roles and permissions to these identities, you can control who can do what on which resources, ensuring proper security and access management." id="kPhYTnK1E6m5oxsVBe5k-14">
          <mxCell style="shape=note;whiteSpace=wrap;html=1;backgroundOutline=1;darkOpacity=0.05;fillColor=#fff2cc;strokeColor=#d6b656;fillStyle=solid;direction=west;gradientDirection=north;shadow=1;size=20;pointerEvents=1;hachureGap=4;align=center;verticalAlign=middle;fontFamily=Architects Daughter;fontSource=https%3A%2F%2Ffonts.googleapis.com%2Fcss%3Ffamily%3DArchitects%2BDaughter;fontSize=12;labelBackgroundColor=none;" vertex="1" parent="1">
            <mxGeometry x="80" y="120" width="360" height="40" as="geometry" />
          </mxCell>
        </UserObject>
        <UserObject label="&lt;div class=&quot;coach-client coach-message-text css-soikf9&quot;&gt;&lt;p&gt;Can you explain the difference between basic, predefined, and custom roles in IAM?&lt;/p&gt;&lt;/div&gt;" tooltip="In Google Cloud IAM, there are three types of roles: basic, predefined, and custom. Here&#39;s an explanation of each type:&#xa;&#xa;    Basic Roles:&#xa;        Basic roles are broad in scope and affect all resources within a project.&#xa;        They provide a convenient way to assign common sets of permissions to users.&#xa;        Examples of basic roles include owner, editor, viewer, and billing administrator.&#xa;        Project viewers can access resources but cannot make changes.&#xa;        Project editors can access and make changes to resources.&#xa;        Project owners have the same access as editors, but they can also manage roles, permissions, and billing.&#xa;        Billing administrators have permissions to manage billing for a project but cannot make changes to resources.&#xa;        Basic roles are suitable for scenarios where a user needs broad access to resources within a project.&#xa;&#xa;    Predefined Roles:&#xa;        Predefined roles are specific to Google Cloud services and offer predefined sets of permissions.&#xa;        Each Google Cloud service may have its own set of predefined roles.&#xa;        These roles define a specific set of actions that can be performed on resources within that service.&#xa;        Examples of predefined roles include &quot;Compute Instance Admin&quot; or &quot;Storage Object Viewer.&quot;&#xa;        Predefined roles can be assigned at the project, folder, or organization level.&#xa;        They provide a more granular level of access control compared to basic roles.&#xa;        Predefined roles are suitable when you need to assign specific permissions for a particular Google Cloud service.&#xa;&#xa;    Custom Roles:&#xa;        Custom roles allow you to define roles with specific sets of permissions tailored to your needs.&#xa;        You can create custom roles at the project or organization level.&#xa;        With custom roles, you have fine-grained control over the permissions assigned to users.&#xa;        This allows you to follow the principle of least privilege, granting users only the permissions they require to perform their tasks.&#xa;        Custom roles are useful when predefined roles do not meet your specific requirements.&#xa;        However, managing custom roles requires additional effort as you need to define and maintain the permissions associated with the role.&#xa;&#xa;In summary, basic roles provide broad access to resources within a project, predefined roles offer predefined sets of permissions for specific Google Cloud services, and custom roles allow you to define roles with specific permissions tailored to your needs." id="kPhYTnK1E6m5oxsVBe5k-15">
          <mxCell style="shape=note;whiteSpace=wrap;html=1;backgroundOutline=1;darkOpacity=0.05;fillColor=#fff2cc;strokeColor=#d6b656;fillStyle=solid;direction=west;gradientDirection=north;shadow=1;size=20;pointerEvents=1;hachureGap=4;align=center;verticalAlign=middle;fontFamily=Architects Daughter;fontSource=https%3A%2F%2Ffonts.googleapis.com%2Fcss%3Ffamily%3DArchitects%2BDaughter;fontSize=12;labelBackgroundColor=none;" vertex="1" parent="1">
            <mxGeometry x="80" y="40" width="360" height="40" as="geometry" />
          </mxCell>
        </UserObject>
        <UserObject label="&lt;div class=&quot;coach-client coach-message-text css-soikf9&quot;&gt;&lt;p&gt;Can you explain the concept of Identity and Access Management (IAM) in Google Cloud?&lt;/p&gt;&lt;/div&gt;" tooltip="In Google Cloud, Identity and Access Management (IAM) is a service that allows you to manage access control and permissions for resources within your cloud environment. IAM helps you control who (identity) can do what (access) on which resources.&#xa;&#xa;Here&#39;s a breakdown of the key concepts in IAM:&#xa;&#xa;    Identity: An identity represents an entity that can perform actions within Google Cloud. This can be a Google account, a Google group, a service account, or a Cloud Identity domain. Each identity has a unique identifier, typically an email address.&#xa;&#xa;    Roles: A role is a collection of permissions that determine what actions an identity can perform on resources. Google Cloud provides three types of roles: basic, predefined, and custom.&#xa;&#xa;        Basic roles: These roles have broad scopes and affect all resources within a project. Examples include owner, editor, viewer, and billing administrator.&#xa;&#xa;        Predefined roles: These roles are specific to Google Cloud services and offer predefined sets of permissions. For example, the &quot;Compute Instance Admin&quot; role allows managing virtual machine instances.&#xa;&#xa;        Custom roles: These roles are created by you and allow you to define specific sets of permissions tailored to your needs. Custom roles can only be applied at the project or organization level.&#xa;&#xa;    IAM Policies: IAM policies are used to assign roles to identities and control access to resources. A policy consists of a set of permissions and the identities to which those permissions are granted. Policies can be applied at different levels of the resource hierarchy, such as project, folder, or organization.&#xa;&#xa;    Inheritance: IAM policies are inherited through the resource hierarchy. When a policy is applied at a higher level, such as a project, it applies to all resources within that project and any child resources within folders or projects.&#xa;&#xa;    Deny Policies: IAM allows the use of deny policies to explicitly deny certain permissions to specific identities. Deny policies take precedence over allow policies, ensuring that denied permissions are not granted, even if they are included in an allow policy.&#xa;&#xa;By effectively using IAM, you can manage access to your Google Cloud resources, enforce the principle of least privilege, and ensure that only authorized individuals or entities have the necessary permissions to perform actions within your cloud environment." id="kPhYTnK1E6m5oxsVBe5k-16">
          <mxCell style="shape=note;whiteSpace=wrap;html=1;backgroundOutline=1;darkOpacity=0.05;fillColor=#fff2cc;strokeColor=#d6b656;fillStyle=solid;direction=west;gradientDirection=north;shadow=1;size=20;pointerEvents=1;hachureGap=4;align=center;verticalAlign=middle;fontFamily=Architects Daughter;fontSource=https%3A%2F%2Ffonts.googleapis.com%2Fcss%3Ffamily%3DArchitects%2BDaughter;fontSize=12;labelBackgroundColor=none;" vertex="1" parent="1">
            <mxGeometry x="80" y="80" width="360" height="40" as="geometry" />
          </mxCell>
        </UserObject>
        <UserObject label="&lt;div class=&quot;coach-client coach-message-text css-soikf9&quot;&gt;&lt;p&gt;Can you explain the role of folders in Google Cloud&#39;s resource hierarchy and how they help with policy management?&lt;/p&gt;&lt;/div&gt;" tooltip="Folders play an important role in Google Cloud&#39;s resource hierarchy and can help with policy management in the following ways:&#xa;&#xa;    Grouping Resources: Folders allow you to group projects and other folders together. This helps you organize your resources in a hierarchical structure that aligns with your organization&#39;s needs. For example, you can create folders based on departments, teams, or specific projects.&#xa;&#xa;    Granular Policy Assignment: Folders enable you to assign policies to resources at a level of granularity you choose. By assigning policies to a folder, all the resources within that folder inherit those policies. This makes it easier to manage and enforce consistent policies across multiple projects and resources.&#xa;&#xa;    Policy Inheritance: Resources within a folder inherit policies and permissions from that folder. This means that if you define a policy at the folder level, it will automatically apply to all the projects and resources within that folder. This inheritance simplifies policy management by eliminating the need to individually assign policies to each resource.&#xa;&#xa;    Delegating Administrative Rights: Folders also provide the ability to delegate administrative rights. You can assign different teams or individuals as administrators of specific folders, allowing them to manage the resources within those folders independently. This delegation of administrative rights promotes collaboration and autonomy within your organization.&#xa;&#xa;    Avoiding Duplication and Errors: By using folders to assign policies, you can avoid duplicating policies across multiple projects. Instead of manually applying the same policies to each project individually, you can place the policies in a common folder. This approach reduces the chances of errors and makes policy management more efficient.&#xa;&#xa;Overall, folders in Google Cloud&#39;s resource hierarchy offer a flexible and scalable way to organize resources, assign policies, and delegate administrative rights. They provide a structured approach to policy management, ensuring consistency and ease of administration across your organization." id="kPhYTnK1E6m5oxsVBe5k-17">
          <mxCell style="shape=note;whiteSpace=wrap;html=1;backgroundOutline=1;darkOpacity=0.05;fillColor=#fff2cc;strokeColor=#d6b656;fillStyle=solid;direction=west;gradientDirection=north;shadow=1;size=20;pointerEvents=1;hachureGap=4;align=center;verticalAlign=middle;fontFamily=Architects Daughter;fontSource=https%3A%2F%2Ffonts.googleapis.com%2Fcss%3Ffamily%3DArchitects%2BDaughter;fontSize=12;labelBackgroundColor=none;" vertex="1" parent="1">
            <mxGeometry x="-300" y="80" width="360" height="40" as="geometry" />
          </mxCell>
        </UserObject>
        <UserObject label="&lt;div class=&quot;coach-client coach-message-text css-soikf9&quot;&gt;&lt;p&gt;How do policies get managed and applied in Google Cloud, and how does inheritance work?&lt;/p&gt;&lt;/div&gt;" tooltip="In Google Cloud, policies are managed and applied at different levels of the resource hierarchy, including the project, folder, and organization node levels. Here&#39;s how it works:&#xa;&#xa;    Policies at the Project Level: You can define policies specific to a project. These policies apply to all the resources within that project. For example, you can set policies to control access, permissions, and usage quotas for the resources in a project.&#xa;&#xa;    Policies at the Folder Level: Folders allow you to group projects and other folders together. You can assign policies to a folder, and those policies will be inherited by all the resources within that folder. This means that if you apply a policy to a folder, it will also apply to all the projects and resources within that folder.&#xa;&#xa;    Policies at the Organization Node Level: The organization node is the top level of the resource hierarchy. You can define policies at this level, and they will be inherited by all the projects, folders, and resources within the organization. This allows you to set high-level policies that apply to your entire organization.&#xa;&#xa;Inheritance of policies works in a downward manner. This means that policies defined at higher levels in the hierarchy are inherited by the resources at lower levels. For example:&#xa;&#xa;    If you define a policy at the organization node level, it will be inherited by all the projects and folders within that organization.&#xa;    If you define a policy at the folder level, it will be inherited by all the projects and resources within that folder.&#xa;    If you define a policy at the project level, it will apply only to the resources within that specific project.&#xa;&#xa;This hierarchical approach to policy management allows for efficient and consistent application of policies across resources in Google Cloud." id="kPhYTnK1E6m5oxsVBe5k-18">
          <mxCell style="shape=note;whiteSpace=wrap;html=1;backgroundOutline=1;darkOpacity=0.05;fillColor=#fff2cc;strokeColor=#d6b656;fillStyle=solid;direction=west;gradientDirection=north;shadow=1;size=20;pointerEvents=1;hachureGap=4;align=center;verticalAlign=middle;fontFamily=Architects Daughter;fontSource=https%3A%2F%2Ffonts.googleapis.com%2Fcss%3Ffamily%3DArchitects%2BDaughter;fontSize=12;labelBackgroundColor=none;" vertex="1" parent="1">
            <mxGeometry x="-300" y="40" width="360" height="40" as="geometry" />
          </mxCell>
        </UserObject>
        <mxCell id="kPhYTnK1E6m5oxsVBe5k-22" value="" style="edgeStyle=orthogonalEdgeStyle;shape=connector;rounded=0;hachureGap=4;orthogonalLoop=1;jettySize=auto;html=1;strokeColor=default;align=center;verticalAlign=middle;fontFamily=Architects Daughter;fontSource=https%3A%2F%2Ffonts.googleapis.com%2Fcss%3Ffamily%3DArchitects%2BDaughter;fontSize=12;fontColor=default;labelBackgroundColor=none;endArrow=classic;" edge="1" parent="1" source="kPhYTnK1E6m5oxsVBe5k-19" target="kPhYTnK1E6m5oxsVBe5k-21">
          <mxGeometry relative="1" as="geometry" />
        </mxCell>
        <UserObject label="Identity Access &amp;amp; Management" tooltip="The topic of the course &quot;Google Cloud Fundamentals: Core Infrastructure&quot; is about understanding the core concepts and components of Google Cloud. It covers various aspects of cloud computing, such as virtual machines, networks, storage, containers, and applications. The course is designed to provide a foundational understanding of Google Cloud and its infrastructure, allowing learners to gain the necessary knowledge to start using Google Cloud services effectively. By completing this course, learners will be equipped with the fundamental skills needed to work with Google Cloud and explore more advanced topics in cloud computing.&#xa;Swapnil&#xa;&#xa;Explain the topic - &quot;Identity and Access Management (IAM)&quot;&#xa;Coach&#xa;&#xa;Identity and Access Management (IAM) is a crucial aspect of managing resources and access in the cloud. In the context of Google Cloud, IAM allows administrators to control and define who can do what and on which resources within an organization&#39;s cloud environment.&#xa;&#xa;IAM policies are used to specify the permissions and roles assigned to different entities, known as principals, such as Google accounts, Google groups, service accounts, or Cloud Identity domains. Each principal has its own identifier, usually an email address.&#xa;&#xa;IAM roles are collections of permissions that determine what actions a principal can perform on resources. By granting a role to a principal, all the permissions associated with that role are granted as well. For example, to manage virtual machine instances in a project, a role that includes permissions to create, delete, start, stop, and change virtual machines would be assigned.&#xa;&#xa;IAM policies are applied to specific elements of the resource hierarchy, and the policies are inherited by all the elements below in the hierarchy. This allows for granular control over access and permissions.&#xa;&#xa;There are three types of roles in IAM: basic, predefined, and custom. Basic roles, such as owner, editor, viewer, and billing administrator, have broad scopes and affect all resources within a project. Predefined roles are specific to Google Cloud services and offer predefined sets of permissions. Custom roles allow organizations to define roles with specific permissions tailored to their needs.&#xa;&#xa;IAM also supports the use of deny rules, which can prevent certain principals from using specific permissions, regardless of the roles they have been granted. Deny policies are checked before allow policies.&#xa;&#xa;By effectively utilizing IAM, organizations can ensure that their cloud resources are accessed and managed by the right individuals or groups, enhancing security and control over their cloud infrastructure." id="kPhYTnK1E6m5oxsVBe5k-19">
          <mxCell style="whiteSpace=wrap;html=1;fontFamily=Architects Daughter;hachureGap=4;fontSource=https%3A%2F%2Ffonts.googleapis.com%2Fcss%3Ffamily%3DArchitects%2BDaughter;" vertex="1" parent="1">
            <mxGeometry x="200" y="360" width="120" height="40" as="geometry" />
          </mxCell>
        </UserObject>
        <UserObject label="Questions" tooltip="    What is the purpose of Identity and Access Management (IAM) in the context of cloud computing?&#xa;    What are the different types of principals that can be assigned roles and permissions in IAM?&#xa;    How are IAM policies used to control access to resources in Google Cloud?&#xa;    What is the difference between a principal and a role in IAM?&#xa;    Explain the concept of permissions and how they are associated with roles in IAM.&#xa;    What is the order in which IAM policies are evaluated when determining access to resources?&#xa;    Describe the three types of roles available in IAM: basic, predefined, and custom.&#xa;    How can deny rules be used in IAM to restrict access to certain permissions?&#xa;    What are some best practices for managing access and permissions using IAM?&#xa;    How does IAM help organizations implement the principle of least privilege in their cloud environments?&#xa;&#xa;&#xa;Here are some conceptual and tricky questions to test your understanding of Identity and Access Management (IAM):&#xa;&#xa;    Can a principal have multiple roles assigned to them in IAM? If so, how are the permissions from these roles combined?&#xa;    What is the difference between a basic role and a predefined role in IAM? Provide examples of each.&#xa;    In IAM, what is the purpose of using custom roles instead of predefined roles? When would you choose to create a custom role?&#xa;    How does IAM handle conflicts between allow and deny policies? Explain the order in which these policies are evaluated.&#xa;    Can IAM policies be applied at different levels of the resource hierarchy in Google Cloud? If so, how does this affect the inheritance of permissions?&#xa;    What are some best practices for managing IAM policies to ensure security and least privilege in a cloud environment?&#xa;    How does IAM integrate with other Google Cloud services, such as Compute Engine or Cloud Storage? Provide examples of how IAM can be used to control access to these services.&#xa;    What are service accounts in IAM, and how are they different from regular user accounts? When would you use a service account?&#xa;    Explain the concept of IAM conditions and how they can be used to further refine access control in Google Cloud.&#xa;    Can IAM policies be used to control access to resources outside of Google Cloud, such as on-premises systems or third-party services? If so, how?&#xa;" id="kPhYTnK1E6m5oxsVBe5k-21">
          <mxCell style="rhombus;whiteSpace=wrap;html=1;fontFamily=Architects Daughter;hachureGap=4;fontSource=https%3A%2F%2Ffonts.googleapis.com%2Fcss%3Ffamily%3DArchitects%2BDaughter;" vertex="1" parent="1">
            <mxGeometry x="220" y="200" width="80" height="80" as="geometry" />
          </mxCell>
        </UserObject>
        <mxCell id="kPhYTnK1E6m5oxsVBe5k-23" value="Ask me conceptual and tricky questions to check my fundamentals and if I have a deep understanding of the topic." style="text;html=1;align=center;verticalAlign=middle;resizable=0;points=[];autosize=1;strokeColor=none;fillColor=none;fontFamily=Architects Daughter;fontSource=https%3A%2F%2Ffonts.googleapis.com%2Fcss%3Ffamily%3DArchitects%2BDaughter;fontSize=12;fontColor=default;labelBackgroundColor=none;" vertex="1" parent="1">
          <mxGeometry x="125" y="478" width="670" height="30" as="geometry" />
        </mxCell>
      </root>
    </mxGraphModel>
  </diagram>
</mxfile>
